<svg xmlns="http://www.w3.org/2000/svg" xmlns:xlink="http://www.w3.org/1999/xlink" width="500" zoomAndPan="magnify" viewBox="0 0 375 374.999991" height="500" preserveAspectRatio="xMidYMid meet" version="1.2"><defs/><g id="08d24b3b02"><g style="fill:#5e4fcf;fill-opacity:1;"><g transform="translate(42.076173, 299.17108)"><path style="stroke:none" d="M 46.734375 -194.515625 C 37.265625 -194.515625 29.53125 -197.300781 23.53125 -202.875 C 17.53125 -208.457031 14.53125 -215.359375 14.53125 -223.578125 C 14.53125 -231.992188 17.53125 -238.988281 23.53125 -244.5625 C 29.53125 -250.144531 37.265625 -252.9375 46.734375 -252.9375 C 55.992188 -252.9375 63.625 -250.144531 69.625 -244.5625 C 75.625 -238.988281 78.625 -231.992188 78.625 -223.578125 C 78.625 -215.359375 75.625 -208.457031 69.625 -202.875 C 63.625 -197.300781 55.992188 -194.515625 46.734375 -194.515625 Z M 73.578125 -176.203125 L 73.578125 0 L 19.578125 0 L 19.578125 -176.203125 Z M 73.578125 -176.203125 "/></g></g><g style="fill:#000000;fill-opacity:1;"><g transform="translate(135.240229, 299.17108)"><path style="stroke:none" d="M 98.84375 -50.53125 L 137.046875 -176.203125 L 194.515625 -176.203125 L 132 0 L 65.359375 0 L 2.84375 -176.203125 L 60.625 -176.203125 Z M 98.84375 -50.53125 "/></g></g></g></svg>