<svg xmlns="http://www.w3.org/2000/svg" xmlns:xlink="http://www.w3.org/1999/xlink" width="500" zoomAndPan="magnify" viewBox="0 0 375 374.999991" height="500" preserveAspectRatio="xMidYMid meet" version="1.2"><defs><clipPath id="b158327eda"><path d="M 15.066406 16.800781 L 360 16.800781 L 360 358.199219 L 15.066406 358.199219 Z M 15.066406 16.800781 "/></clipPath><clipPath id="cf3321eba2"><path d="M 51.816406 16.800781 L 323.183594 16.800781 C 343.480469 16.800781 359.933594 33.253906 359.933594 53.550781 L 359.933594 321.449219 C 359.933594 341.746094 343.480469 358.199219 323.183594 358.199219 L 51.816406 358.199219 C 31.519531 358.199219 15.066406 341.746094 15.066406 321.449219 L 15.066406 53.550781 C 15.066406 33.253906 31.519531 16.800781 51.816406 16.800781 Z M 51.816406 16.800781 "/></clipPath><clipPath id="e63bc02ca1"><path d="M 0.0664062 0.800781 L 345 0.800781 L 345 342.199219 L 0.0664062 342.199219 Z M 0.0664062 0.800781 "/></clipPath><clipPath id="e442b410d0"><path d="M 36.816406 0.800781 L 308.183594 0.800781 C 328.480469 0.800781 344.933594 17.253906 344.933594 37.550781 L 344.933594 305.449219 C 344.933594 325.746094 328.480469 342.199219 308.183594 342.199219 L 36.816406 342.199219 C 16.519531 342.199219 0.0664062 325.746094 0.0664062 305.449219 L 0.0664062 37.550781 C 0.0664062 17.253906 16.519531 0.800781 36.816406 0.800781 Z M 36.816406 0.800781 "/></clipPath><clipPath id="5029b07d25"><rect x="0" width="345" y="0" height="343"/></clipPath></defs><g id="e3834d33c8"><g clip-rule="nonzero" clip-path="url(#b158327eda)"><g clip-rule="nonzero" clip-path="url(#cf3321eba2)"><g transform="matrix(1,0,0,1,15,16)"><g clip-path="url(#5029b07d25)"><g clip-rule="nonzero" clip-path="url(#e63bc02ca1)"><g clip-rule="nonzero" clip-path="url(#e442b410d0)"><path style=" stroke:none;fill-rule:nonzero;fill:#5e4fcf;fill-opacity:1;" d="M 0.0664062 0.800781 L 345.46875 0.800781 L 345.46875 342.199219 L 0.0664062 342.199219 Z M 0.0664062 0.800781 "/></g></g></g></g></g></g><g style="fill:#000000;fill-opacity:1;"><g transform="translate(42.076173, 299.171055)"><path style="stroke:none" d="M 46.734375 -194.515625 C 37.265625 -194.515625 29.53125 -197.300781 23.53125 -202.875 C 17.53125 -208.457031 14.53125 -215.359375 14.53125 -223.578125 C 14.53125 -231.992188 17.53125 -238.988281 23.53125 -244.5625 C 29.53125 -250.144531 37.265625 -252.9375 46.734375 -252.9375 C 55.992188 -252.9375 63.625 -250.144531 69.625 -244.5625 C 75.625 -238.988281 78.625 -231.992188 78.625 -223.578125 C 78.625 -215.359375 75.625 -208.457031 69.625 -202.875 C 63.625 -197.300781 55.992188 -194.515625 46.734375 -194.515625 Z M 73.578125 -176.203125 L 73.578125 0 L 19.578125 0 L 19.578125 -176.203125 Z M 73.578125 -176.203125 "/></g></g><g style="fill:#ffffff;fill-opacity:1;"><g transform="translate(135.240229, 299.171055)"><path style="stroke:none" d="M 98.84375 -50.53125 L 137.046875 -176.203125 L 194.515625 -176.203125 L 132 0 L 65.359375 0 L 2.84375 -176.203125 L 60.625 -176.203125 Z M 98.84375 -50.53125 "/></g></g></g></svg>